<svg viewBox="0 0 500 260" xmlns="http://www.w3.org/2000/svg">
  <rect width="500" height="260" fill="#ffffff"/>
  <line x1="30" y1="30" x2="30" y2="230" stroke="#2563eb" stroke-width="2"/>
  <line x1="65" y1="30" x2="65" y2="230" stroke="#2563eb" stroke-width="2"/>
  <line x1="100" y1="30" x2="100" y2="230" stroke="#2563eb" stroke-width="2"/>
  <line x1="135" y1="30" x2="135" y2="230" stroke="#2563eb" stroke-width="2"/>

  <rect x="165" y="10" width="12" height="95" fill="#1f2937"/>
  <rect x="165" y="155" width="12" height="95" fill="#1f2937"/>

  <path d="M 171 100 A 40 40 0 0 1 171 160" fill="none" stroke="#2563eb" stroke-width="2"/>
  <path d="M 171 80  A 60 60 0 0 1 171 180" fill="none" stroke="#2563eb" stroke-width="2"/>
  <path d="M 171 55  A 85 85 0 0 1 171 205" fill="none" stroke="#2563eb" stroke-width="2"/>
  <path d="M 171 25  A 115 115 0 0 1 171 235" fill="none" stroke="#2563eb" stroke-width="2"/>

  <text x="130" y="255" font-family="Arial" font-size="14" fill="#1f2937" font-weight="bold">Diffraction through a narrow gap</text>
  <text x="10" y="20" font-family="Arial" font-size="12" fill="#374151">plane wavefronts</text>
  <text x="330" y="70" font-family="Arial" font-size="12" fill="#374151">spreading (diffracted)</text>
</svg>
